<svg width="148" height="28" viewBox="0 0 148 28" fill="none" xmlns="http://www.w3.org/2000/svg">
<path d="M121.912 27V1.79999H136.582C143.512 1.79999 147.742 4.79999 147.742 11.85C147.742 18.87 143.512 21.87 136.612 21.87H130.972V27H121.912ZM130.972 14.34H135.772C137.452 14.34 138.562 13.5 138.562 11.85C138.562 10.17 137.452 9.32999 135.802 9.32999H130.972V14.34Z" fill="white"/>
<path d="M105.944 27.84C97.1539 27.84 91.5439 22.53 91.5439 14.4C91.5439 6.27002 97.1539 0.960022 105.944 0.960022C114.764 0.960022 120.374 6.27002 120.374 14.4C120.374 22.53 114.764 27.84 105.944 27.84ZM105.944 20.01C108.854 20.01 111.344 18.06 111.344 14.4C111.344 10.74 108.854 8.79002 105.944 8.79002C103.064 8.79002 100.544 10.74 100.544 14.4C100.544 18.06 103.064 20.01 105.944 20.01Z" fill="white"/>
<path d="M80.9651 1.79999H90.0552V27H80.9651V18.21H72.0852V27H63.0251V1.79999H72.0852V10.59H80.9651V1.79999Z" fill="white"/>
<path d="M48.3655 27.84C39.3355 27.81 35.2255 25.11 35.4955 18.36H43.6255C43.6855 19.86 44.9455 20.73 48.3655 20.79C51.3055 20.82 52.5655 20.04 52.5655 19.14C52.5655 18.66 52.4455 17.82 50.1655 17.52L46.8655 17.01C42.1255 16.26 36.0655 15.93 36.0655 9.15002C36.0655 4.08002 40.1155 0.960022 48.4555 0.960022C55.8955 0.960022 61.0855 2.88002 60.8755 10.38H52.7755C52.5055 8.91002 51.2155 8.01002 48.2455 8.01002C45.6955 8.01002 44.7655 8.73002 44.7655 9.63002C44.7655 10.05 44.9755 10.89 46.6855 11.16L49.3255 11.58C54.3955 12.42 61.5955 12.33 61.5955 19.53C61.5955 25.17 57.2755 27.87 48.3655 27.84Z" fill="white"/>
<path d="M29.6319 27.48C27.2319 27.48 25.1919 25.47 25.1919 23.1C25.1919 20.7 27.2319 18.69 29.6319 18.69C32.0619 18.69 34.1019 20.7 34.1019 23.1C34.1019 25.47 32.0619 27.48 29.6319 27.48Z" fill="white"/>
<path d="M-0.0100098 27V1.79999H23.18V9.02999H9.04999V11.49H22.64V17.31H9.04999V19.74H23.18V27H-0.0100098Z" fill="white"/>
</svg>
